#!OML:ASF I:\Random Stuff\random\construction\7_22_03\Session 2\subj1.ASF
:FULLY-SPECIFIED
:DEGREES
404
root -2.21498 17.818 0.547569 -66.1735 87.8348 -74.6397
lowerback 1.30821 -0.461427 0.924595
upperback -1.93576 -0.542471 1.3185
thorax -2.71539 -0.267916 0.854657
lowerneck -22.3191 1.38314 2.97894
upperneck 41.5048 4.19669 -3.53893
head 20.2689 2.08947 -1.15229
rclavicle 5.35476e-015 -1.08338e-014
rhumerus -35.875 30.4155 -100.219
rradius 87.1205
rwrist -41.3039
rhand -33.2419 18.3564
rfingers 7.12502
rthumb -6.44772 -11.5255
lclavicle 5.35476e-015 -1.08338e-014
lhumerus -26.3842 -34.177 103.186
lradius 75.708
lwrist 49.3451
lhand -18.2194 57.1361
lfingers 7.12502
lthumb 8.05858 86.9624
rfemur -5.59826 12.2237 19.7382
rtibia 4.01395
rfoot -1.688 -20.4411
rtoes -13.7152
lfemur -14.9335 -18.9624 -11.3446
ltibia 19.2377
lfoot -11.7281 15.9356
ltoes -33.1167
405
root -2.21488 17.8181 0.546614 -62.5117 87.747 -70.9741
lowerback 1.38227 -0.449119 0.934591
upperback -1.98459 -0.523525 1.3103
thorax -2.80775 -0.258731 0.841018
lowerneck -22.364 1.41671 2.72752
upperneck 41.4701 4.07289 -2.95472
head 20.2168 2.07989 -0.841966
rclavicle 2.14936e-015 3.37934e-015
rhumerus -35.9055 30.7302 -100.329
rradius 87.1205
rwrist -41.3957
rhand -33.2588 18.254
rfingers 7.12502
rthumb -6.46403 -11.6274
lclavicle 2.14936e-015 3.37934e-015
lhumerus -25.876 -34.1803 102.815
lradius 75.711
lwrist 49.5096
lhand -18.3155 57.2704
lfingers 7.12502
lthumb 7.96585 87.1003
rfemur -5.52778 12.3881 19.745
rtibia 3.7961
rfoot -1.5191 -20.4152
rtoes -13.5896
lfemur -14.9059 -18.8005 -11.3304
ltibia 19.277
lfoot -11.8146 15.878
ltoes -32.8954
406
root -2.2126 17.8171 0.551198 -58.8821 87.5246 -67.2972
lowerback 1.41001 -0.392234 0.977164
upperback -1.97037 -0.44484 1.3491
thorax -2.80942 -0.219786 0.854169
lowerneck -22.4205 1.50125 2.74922
upperneck 41.3347 4.0856 -2.78707
head 20.1369 2.10527 -0.759113
rclavicle -4.21175e-015 7.95139e-015
rhumerus -35.8583 30.9717 -100.319
rradius 87.1729
rwrist -41.4315
rhand -33.1998 17.9333
rfingers 7.12502
rthumb -6.40712 -11.9497
lclavicle -4.21175e-015 7.95139e-015
lhumerus -25.2299 -34.2509 102.417
lradius 75.7003
lwrist 49.6355
lhand -18.3725 57.4195
lfingers 7.12502
lthumb 7.9108 87.2514
rfemur -5.43657 12.6333 19.9096
rtibia 3.65409
rfoot -1.4141 -20.4059
rtoes -13.4485
lfemur -14.7972 -18.4766 -11.2058
ltibia 19.3025
lfoot -11.9074 15.7588
ltoes -32.7603
407
root -2.21131 17.8171 0.553987 -54.24 87.3529 -62.6151
lowerback 1.43568 -0.328889 0.942245
upperback -1.95715 -0.360727 1.36366
thorax -2.81057 -0.176953 0.885572
lowerneck -22.52 1.60243 3.04343
upperneck 41.2866 4.20857 -3.03395
head 20.1611 2.16015 -0.906645
rclavicle 6.42323e-015 -3.08116e-015
rhumerus -35.8491 31.2055 -100.287
rradius 87.2746
rwrist -41.3986
rhand -33.2815 17.9284
rfingers 7.12502
rthumb -6.48594 -11.9522
lclavicle 6.42323e-015 -3.08116e-015
lhumerus -24.5683 -34.2877 101.99
lradius 75.6998
lwrist 49.7177
lhand -18.456 57.3672
lfingers 7.12502
lthumb 7.83022 87.2022
rfemur -5.37049 12.9044 19.9615
rtibia 3.51343
rfoot -1.26703 -20.4087
rtoes -13.7155
lfemur -14.6868 -18.1782 -11.1804
ltibia 19.3247
lfoot -11.9697 15.6734
ltoes -32.4075
408
root -2.21293 17.8181 0.547738 -49.507 87.3108 -57.8919
lowerback 1.45913 -0.308306 0.887646
upperback -1.97785 -0.335619 1.31797
thorax -2.8452 -0.164014 0.868552
lowerneck -22.5643 1.66949 3.14663
upperneck 41.2163 4.23495 -3.00969
head 20.1311 2.18576 -0.907039
rclavicle 8.07563e-016 -7.85199e-015
rhumerus -35.8669 31.4313 -100.303
rradius 87.3783
rwrist -41.4039
rhand -33.3194 18.1318
rfingers 7.12502
rthumb -6.52258 -11.7477
lclavicle 8.07563e-016 -7.85199e-015
lhumerus -24.0377 -34.1625 101.581
lradius 75.7854
lwrist 49.6668
lhand -18.4804 57.3184
lfingers 7.12502
lthumb 7.80669 87.1542
rfemur -5.39044 13.0987 19.814
rtibia 3.41462
rfoot -1.12063 -20.3996
rtoes -14.151
lfemur -14.6596 -17.9606 -11.3131
ltibia 19.3367
lfoot -11.9511 15.6203
ltoes -32.2771
